<?xml version="1.0" encoding="utf-8"?>
<!-- Generator: Adobe Illustrator 24.1.1, SVG Export Plug-In . SVG Version: 6.00 Build 0)  -->
<svg version="1.1" id="Layer_1" xmlns="http://www.w3.org/2000/svg" xmlns:xlink="http://www.w3.org/1999/xlink" x="0px" y="0px"
	 viewBox="0 0 474.2 123.5" style="enable-background:new 0 0 474.2 123.5;" xml:space="preserve">
<style type="text/css">
	.st0{fill:#FFFFFF;}
	.st1{font-family:'Choplin-Medium-DEMO';}
	.st2{font-size:96.39px;}
	.st3{letter-spacing:-5;}
	.st4{letter-spacing:-4;}
	.st5{letter-spacing:-11;}
	.st6{letter-spacing:-52;}
	.st7{font-family:'Montserrat-SemiBold';}
	.st8{font-size:22.7551px;}
	.st9{letter-spacing:2;}
</style>
<text transform="matrix(1 0 0 1 60.71 80.96)" class="st0 st1 st2 st3">C</text>
<text transform="matrix(1 0 0 1 132.42 80.96)" class="st0 st1 st2">a</text>
<text transform="matrix(1 0 0 1 195.94 80.96)" class="st0 st1 st2">r</text>
<text transform="matrix(1 0 0 1 238.73 80.96)" class="st0 st1 st2 st3">m</text>
<text transform="matrix(1 0 0 1 328.86 80.96)" class="st0 st1 st2 st4">e</text>
<text transform="matrix(1 0 0 1 376.95 80.96)" class="st0 st1 st2">l</text>
<text transform="matrix(1 0 0 1 409.92 80.96)" class="st0 st1 st2 st5">’</text>
<text transform="matrix(1 0 0 1 419.07 80.96)" class="st0 st1 st2 st6">s</text>
<polygon class="st0" points="49.6,6.8 1,31.9 31.3,47.6 49.6,38.1 "/>
<polygon class="st0" points="49.6,92.3 49.6,61 31.3,51.6 1,67.2 "/>
<polygon class="st0" points="1,33.9 1,65.2 1,65.2 31.3,49.6 1,33.9 "/>
<text transform="matrix(1 0 0 1 163.7658 117.1603)" class="st0 st7 st8 st9">CARMTEK SOLUTIONS</text>
</svg>
