<svg id="Layer_1" data-name="Layer 1" xmlns="http://www.w3.org/2000/svg" viewBox="0 0 515.41 116.2"><defs><style>.cls-1{fill:#fff;}.cls-2{fill:none;stroke:#fff;stroke-miterlimit:10;}</style></defs><path class="cls-1" d="M426.46,1644.2a29.42,29.42,0,0,1,1.76-10.19,23.86,23.86,0,0,1,13.12-14,26.76,26.76,0,0,1,10.81-2.08,35.24,35.24,0,0,1,7.3.71,34.68,34.68,0,0,1,6.44,2L463,1632a34.59,34.59,0,0,0-4.36-1.33,22.72,22.72,0,0,0-5.3-.57q-6.27,0-9.34,3.89t-3.08,10.23q0,6.73,2.89,10.43t10.09,3.69a34.14,34.14,0,0,0,5.5-.47,22.77,22.77,0,0,0,5.4-1.52l2,11.57a33.67,33.67,0,0,1-6.16,1.8,41,41,0,0,1-8.15.76,30.61,30.61,0,0,1-11.75-2,22,22,0,0,1-8.1-5.55,21.54,21.54,0,0,1-4.65-8.29A35.19,35.19,0,0,1,426.46,1644.2Z" transform="translate(-286.74 -1584.21)"/><path class="cls-1" d="M493.66,1618a32.72,32.72,0,0,1,10.43,1.42,16.24,16.24,0,0,1,6.68,4.08,15,15,0,0,1,3.55,6.44,31.62,31.62,0,0,1,1,8.44v29.38q-3,.66-8.43,1.56a81.07,81.07,0,0,1-13.08.9,41.42,41.42,0,0,1-8.77-.85,18.91,18.91,0,0,1-6.77-2.8,12.68,12.68,0,0,1-4.36-5.07,17.47,17.47,0,0,1-1.52-7.67,14.58,14.58,0,0,1,1.75-7.4,13.52,13.52,0,0,1,4.7-4.83,21.22,21.22,0,0,1,6.72-2.61,38.26,38.26,0,0,1,7.87-.8,46.89,46.89,0,0,1,4.88.23,22.17,22.17,0,0,1,3.46.62v-1.33a7.84,7.84,0,0,0-2.18-5.78q-2.17-2.18-7.58-2.18a49.39,49.39,0,0,0-7.11.52,30.59,30.59,0,0,0-6.06,1.47l-1.81-11.37c.83-.25,1.85-.52,3.08-.81s2.58-.53,4-.76,3-.41,4.6-.56S492,1618,493.66,1618Zm1.14,41.32c1.39,0,2.71,0,4-.09a26,26,0,0,0,3-.29v-10.71c-.57-.12-1.42-.25-2.56-.38a30.23,30.23,0,0,0-3.13-.19,27.67,27.67,0,0,0-3.74.24,9.93,9.93,0,0,0-3.08.9,5.23,5.23,0,0,0-2.08,1.8,5,5,0,0,0-.76,2.85q0,3.31,2.22,4.59A12.28,12.28,0,0,0,494.8,1659.27Z" transform="translate(-286.74 -1584.21)"/><path class="cls-1" d="M560.1,1631.79c-1.27-.32-2.75-.65-4.46-1a28,28,0,0,0-5.49-.52,25.16,25.16,0,0,0-3.18.24,18.82,18.82,0,0,0-2.79.52v38.1H530.05v-47.2a86.55,86.55,0,0,1,9-2.51,51.56,51.56,0,0,1,11.52-1.19c.75,0,1.67,0,2.74.15s2.15.22,3.23.37,2.14.35,3.22.57a15.7,15.7,0,0,1,2.75.81Z" transform="translate(-286.74 -1584.21)"/><path class="cls-1" d="M599.34,1642.69c0-4.55-.59-7.78-1.76-9.67s-3.17-2.84-6-2.84a25.93,25.93,0,0,0-2.74.14c-1,.09-1.87.2-2.75.33v38.48H572V1621c1.2-.31,2.6-.65,4.21-1s3.32-.67,5.12-1,3.65-.51,5.55-.66,3.75-.24,5.59-.24a23.59,23.59,0,0,1,8.76,1.37,20,20,0,0,1,5.55,3.27,26.36,26.36,0,0,1,14.21-4.64,24.76,24.76,0,0,1,9.81,1.66,14.79,14.79,0,0,1,6.12,4.69,17.84,17.84,0,0,1,3.13,7.2,47.18,47.18,0,0,1,.85,9.29v28.15H626.73v-26.44c0-4.55-.59-7.78-1.76-9.67s-3.17-2.84-6-2.84a13.11,13.11,0,0,0-3.17.56,12.25,12.25,0,0,0-3.36,1.43,21.81,21.81,0,0,1,.85,4.59c.12,1.61.19,3.34.19,5.17v27.2H599.34Z" transform="translate(-286.74 -1584.21)"/><path class="cls-1" d="M655.06,1606.86l14.13-2.27v14.69h17V1631h-17v17.53a14,14,0,0,0,1.56,7.11q1.56,2.65,6.3,2.65a27.33,27.33,0,0,0,4.69-.42,24.17,24.17,0,0,0,4.41-1.19l2,11a41.31,41.31,0,0,1-5.68,1.8,33.5,33.5,0,0,1-7.68.76,25.06,25.06,0,0,1-9.57-1.57,15,15,0,0,1-6.07-4.36,16,16,0,0,1-3.17-6.77,39.51,39.51,0,0,1-.91-8.82Z" transform="translate(-286.74 -1584.21)"/><path class="cls-1" d="M695.25,1644.58a30.48,30.48,0,0,1,2-11.61,24.87,24.87,0,0,1,5.35-8.29,22.22,22.22,0,0,1,7.63-5,23.86,23.86,0,0,1,8.86-1.71q10.62,0,16.78,6.49t6.16,19.1c0,.82,0,1.72-.1,2.7s-.12,1.85-.18,2.61h-32a9.4,9.4,0,0,0,4.08,6.92q3.6,2.55,9.66,2.55a40.27,40.27,0,0,0,7.63-.71,28.31,28.31,0,0,0,6.12-1.75l1.89,11.47a19.64,19.64,0,0,1-3,1.14,41.27,41.27,0,0,1-4.22,1c-1.55.29-3.21.52-5,.71a49.72,49.72,0,0,1-5.31.29,31.58,31.58,0,0,1-11.71-2,23,23,0,0,1-8.24-5.45,21.77,21.77,0,0,1-4.84-8.2A32.55,32.55,0,0,1,695.25,1644.58Zm33.17-5.4a14.84,14.84,0,0,0-.61-3.51,8.86,8.86,0,0,0-1.62-3,8.61,8.61,0,0,0-2.74-2.18,9,9,0,0,0-4.13-.85,9.56,9.56,0,0,0-4.07.8,8.53,8.53,0,0,0-2.85,2.13,9.77,9.77,0,0,0-1.75,3.09,20.08,20.08,0,0,0-.9,3.55Z" transform="translate(-286.74 -1584.21)"/><path class="cls-1" d="M769,1637.18q2.09-2.27,4.3-4.71c1.49-1.64,2.92-3.25,4.31-4.85s2.7-3.13,3.93-4.58,2.29-2.69,3.17-3.76h16.79q-5,5.76-9.8,11t-10.48,10.83a63.67,63.67,0,0,1,5.88,6.13q3,3.55,5.87,7.35t5.22,7.6c1.58,2.53,2.9,4.84,4,6.93H785.92q-1.51-2.48-3.45-5.46c-1.3-2-2.67-4-4.12-6s-3-3.91-4.59-5.75a38.91,38.91,0,0,0-4.77-4.65v21.85H754.86v-71.27l14.13-2.28Z" transform="translate(-286.74 -1584.21)"/><path class="cls-1" d="M339.09,1608.81h0a8.29,8.29,0,0,0,9.67-1.93,19.76,19.76,0,0,1,34,16.32,8.32,8.32,0,0,0,4.53,8.76h0a8.25,8.25,0,0,0,11.71-6.32,36.19,36.19,0,0,0-62.28-29.91A8.24,8.24,0,0,0,339.09,1608.81Z" transform="translate(-286.74 -1584.21)"/><path class="cls-1" d="M324.52,1671.18h0a8.31,8.31,0,0,0-6.4-7.51,19.76,19.76,0,0,1-2.25-37.63,8.31,8.31,0,0,0,5.44-8.22h0a8.24,8.24,0,0,0-11.21-7.16,36.19,36.19,0,0,0,4.14,69A8.26,8.26,0,0,0,324.52,1671.18Z" transform="translate(-286.74 -1584.21)"/><path class="cls-1" d="M386.35,1650.13h0a8.3,8.3,0,0,0-3.56,9.19,19.76,19.76,0,0,1-32,19.9,8.31,8.31,0,0,0-9.82-.88h0a8.23,8.23,0,0,0-.95,13.26,36.18,36.18,0,0,0,58.68-36.46A8.24,8.24,0,0,0,386.35,1650.13Z" transform="translate(-286.74 -1584.21)"/><path class="cls-1" d="M352.92,1621.88a21.49,21.49,0,1,0,18.33,24.24A21.5,21.5,0,0,0,352.92,1621.88Zm5.41,22.45a8.44,8.44,0,1,1-7.2-9.52A8.44,8.44,0,0,1,358.33,1644.33Z" transform="translate(-286.74 -1584.21)"/><circle class="cls-2" cx="506.77" cy="19.06" r="5.47"/><path class="cls-1" d="M795.59,1606.43l-1.41-2-.49,0H792v2h-.65v-6.15h2.3c1.57,0,2.52.79,2.52,2.11a1.91,1.91,0,0,1-1.41,1.94l1.5,2.1Zm0-4c0-1-.65-1.55-1.89-1.55H792v3.09h1.63C794.91,1603.93,795.56,1603.36,795.56,1602.39Z" transform="translate(-286.74 -1584.21)"/></svg>