<svg id="Layer_1" data-name="Layer 1" xmlns="http://www.w3.org/2000/svg" viewBox="0 0 113.08 116.2"><defs><style>.cls-1{fill:red;}</style></defs><path class="cls-1" d="M339.09,1608.81h0a8.29,8.29,0,0,0,9.67-1.93,19.76,19.76,0,0,1,34,16.32,8.32,8.32,0,0,0,4.53,8.76h0a8.25,8.25,0,0,0,11.71-6.32,36.19,36.19,0,0,0-62.28-29.91A8.24,8.24,0,0,0,339.09,1608.81Z" transform="translate(-286.74 -1584.21)"/><path class="cls-1" d="M324.52,1671.18h0a8.31,8.31,0,0,0-6.4-7.51,19.76,19.76,0,0,1-2.25-37.63,8.31,8.31,0,0,0,5.44-8.22h0a8.24,8.24,0,0,0-11.21-7.16,36.19,36.19,0,0,0,4.14,69A8.26,8.26,0,0,0,324.52,1671.18Z" transform="translate(-286.74 -1584.21)"/><path class="cls-1" d="M386.35,1650.13h0a8.3,8.3,0,0,0-3.56,9.19,19.76,19.76,0,0,1-32,19.9,8.31,8.31,0,0,0-9.82-.88h0a8.23,8.23,0,0,0-.95,13.26,36.18,36.18,0,0,0,58.68-36.46A8.24,8.24,0,0,0,386.35,1650.13Z" transform="translate(-286.74 -1584.21)"/><path class="cls-1" d="M352.92,1621.88a21.49,21.49,0,1,0,18.33,24.24A21.5,21.5,0,0,0,352.92,1621.88Zm5.41,22.45a8.44,8.44,0,1,1-7.2-9.52A8.44,8.44,0,0,1,358.33,1644.33Z" transform="translate(-286.74 -1584.21)"/></svg>